<?xml version="1.0" encoding="iso-8859-1"?>
<!-- Generator: Adobe Illustrator 19.0.0, SVG Export Plug-In . SVG Version: 6.00 Build 0)  -->
<svg version="1.1" id="Capa_1" xmlns="http://www.w3.org/2000/svg" xmlns:xlink="http://www.w3.org/1999/xlink" x="0px" y="0px"
	 viewBox="0 0 511.987 511.987" style="enable-background:new 0 0 511.987 511.987;" xml:space="preserve">
<g>
	<path style="fill:#FFA800;" d="M383.994,68.254V26.782c0.428-5.129-1.536-10.169-5.323-13.656s-8.971-5.029-14.048-4.179
		l-12.8,3.072L119.461,68.254H383.994z"/>
	<path style="fill:#FFE100;" d="M358.394,26.782v41.472H119.461l232.363-56.235C356.073,15.738,358.475,21.135,358.394,26.782
		L358.394,26.782z"/>
	<path style="fill:#FFA800;" d="M153.594,68.254h238.933c9.426,0,17.067,7.641,17.067,17.067v401.067
		c0,9.426-7.641,17.067-17.067,17.067H153.594c-9.426,0-17.067-7.641-17.067-17.067V85.32
		C136.527,75.895,144.168,68.254,153.594,68.254z"/>
	<path style="fill:#FFFFFF;" d="M119.461,68.254h238.933c9.426,0,17.067,7.641,17.067,17.067v401.067
		c0,9.426-7.641,17.067-17.067,17.067H119.461c-9.426,0-17.067-7.641-17.067-17.067V85.32
		C102.394,75.895,110.035,68.254,119.461,68.254z"/>
	<path style="fill:#FFE100;" d="M145.061,68.254h221.867c9.426,0,17.067,7.641,17.067,17.067v401.067
		c0,9.426-7.641,17.067-17.067,17.067H145.061c-9.426,0-17.067-7.641-17.067-17.067V85.32
		C127.994,75.895,135.635,68.254,145.061,68.254z"/>
	<g>
		<path d="M392.527,511.987H119.461c-14.132-0.015-25.585-11.468-25.6-25.6V170.65c0-4.713,3.821-8.533,8.533-8.533
			s8.533,3.821,8.533,8.533v315.738c0.006,4.71,3.823,8.527,8.533,8.533h273.067c4.71-0.006,8.527-3.823,8.533-8.533V85.32
			c-0.006-4.71-3.823-8.527-8.533-8.533H119.461c-4.71,0.006-8.527,3.823-8.533,8.533v17.067c0,4.713-3.821,8.533-8.533,8.533
			s-8.533-3.821-8.533-8.533V85.32c0.015-14.132,11.468-25.585,25.6-25.6h273.067c14.132,0.015,25.585,11.468,25.6,25.6v401.067
			C418.112,500.519,406.659,511.972,392.527,511.987z"/>
		<path d="M102.394,145.054c-3.45-0.014-6.556-2.096-7.879-5.282c-1.323-3.187-0.606-6.856,1.82-9.31
			c0.8-0.791,1.759-1.403,2.813-1.796c3.188-1.251,6.811-0.551,9.305,1.796c2.462,2.441,3.201,6.129,1.872,9.331
			C108.995,142.995,105.861,145.074,102.394,145.054z"/>
	</g>
	<g>
		<path style="fill:#63D3FD;" d="M332.794,168.657v51.2c-0.014,4.707-3.826,8.519-8.533,8.533h-8.533v110.933
			c0,9.426-7.641,17.067-17.067,17.067c-9.426,0-17.067-7.641-17.067-17.067V108.326l8.448,1.195
			C319.482,113.702,332.794,138.961,332.794,168.657z"/>
		<path style="fill:#63D3FD;" d="M247.461,151.624v25.6c0.053,10.849-6.811,20.526-17.067,24.064v138.069
			c0,9.426-7.641,17.067-17.067,17.067s-17.067-7.641-17.067-17.067V201.288c-10.256-3.538-17.119-13.215-17.067-24.064v-25.6
			c-0.024,4.528,1.793,8.871,5.035,12.032c4.862,4.903,12.204,6.382,18.585,3.743c6.381-2.638,10.534-8.871,10.514-15.775
			c-0.024,4.528,1.793,8.871,5.035,12.032c4.862,4.903,12.204,6.382,18.585,3.743C243.327,164.761,247.481,158.529,247.461,151.624
			L247.461,151.624z"/>
	</g>
	<g>
		<path d="M298.661,364.924c-14.132-0.015-25.585-11.468-25.6-25.6v-231c0.001-2.472,1.072-4.822,2.939-6.443
			s4.343-2.353,6.791-2.007l8.45,1.196c30.896,4.392,50.088,30.287,50.088,67.587v51.2c-0.009,9.422-7.645,17.057-17.067,17.067
			v102.4C324.245,353.457,312.793,364.909,298.661,364.924L298.661,364.924z M290.127,118.17v221.154
			c0,4.713,3.82,8.533,8.533,8.533s8.533-3.82,8.533-8.533V228.391c0-4.713,3.82-8.533,8.533-8.533h8.533v-51.2
			C324.261,155.116,320.902,123.387,290.127,118.17z"/>
		<path d="M213.327,160.124c-4.713,0-8.533-3.82-8.533-8.533v-42.667c0-4.713,3.82-8.533,8.533-8.533s8.533,3.821,8.533,8.533
			v42.667C221.861,156.304,218.04,160.124,213.327,160.124z"/>
		<path d="M213.327,364.958c-14.132-0.015-25.585-11.468-25.6-25.6V206.758c-10.578-6.067-17.092-17.339-17.067-29.534v-25.6
			c0-4.713,3.821-8.533,8.533-8.533s8.533,3.821,8.533,8.533c-0.022,2.225,0.864,4.364,2.454,5.921
			c2.404,2.507,6.093,3.296,9.313,1.991s5.319-4.439,5.3-7.912c0-4.713,3.82-8.533,8.533-8.533s8.533,3.821,8.533,8.533
			c-0.022,2.225,0.864,4.364,2.454,5.921c2.404,2.507,6.093,3.296,9.313,1.991c3.219-1.304,5.319-4.439,5.3-7.912
			c0-4.713,3.821-8.533,8.533-8.533c4.713,0,8.533,3.821,8.533,8.533v25.6c0.025,12.194-6.489,23.466-17.067,29.534v132.599
			C238.912,353.49,227.459,364.942,213.327,364.958L213.327,364.958z M187.727,175.754v1.471
			c-0.042,7.195,4.496,13.621,11.292,15.988c3.454,1.179,5.775,4.425,5.775,8.075v138.071c0,4.713,3.82,8.533,8.533,8.533
			s8.533-3.82,8.533-8.533V201.287c0-3.65,2.321-6.896,5.775-8.075c6.795-2.367,11.334-8.792,11.292-15.988v-1.463
			c-8.823,2.969-18.559,1.028-25.571-5.096C206.322,176.79,196.568,178.727,187.727,175.754z"/>
		<path d="M247.461,160.158c-4.713,0-8.533-3.821-8.533-8.533v-42.667c0-4.713,3.821-8.533,8.533-8.533
			c4.713,0,8.533,3.821,8.533,8.533v42.667C255.994,156.337,252.174,160.158,247.461,160.158z"/>
		<path d="M179.194,160.158c-4.713,0-8.533-3.821-8.533-8.533v-42.667c0-4.713,3.821-8.533,8.533-8.533s8.533,3.821,8.533,8.533
			v42.667C187.727,156.337,183.907,160.158,179.194,160.158z"/>
		<path d="M247.461,177.224c-2.278-0.026-4.454-0.946-6.059-2.562c-0.771-0.783-1.382-1.711-1.796-2.729
			c-0.436-1.026-0.667-2.127-0.679-3.242c-0.001-2.266,0.888-4.441,2.475-6.059c3.421-3.158,8.695-3.158,12.117,0
			c1.585,1.618,2.474,3.793,2.475,6.059c-0.044,2.231-0.928,4.363-2.475,5.971c-0.415,0.416-0.873,0.788-1.367,1.108
			c-0.425,0.258-0.937,0.513-1.45,0.771l-1.538,0.513C248.601,177.152,248.032,177.209,247.461,177.224z"/>
		<path d="M290.127,433.191H170.661c-4.713,0-8.533-3.82-8.533-8.533s3.82-8.533,8.533-8.533h119.467
			c4.713,0,8.533,3.821,8.533,8.533S294.84,433.191,290.127,433.191z"/>
		<path d="M341.327,433.191h-17.067c-4.713,0-8.533-3.82-8.533-8.533s3.82-8.533,8.533-8.533h17.067
			c4.713,0,8.533,3.821,8.533,8.533S346.04,433.191,341.327,433.191z"/>
		<path d="M341.327,467.324h-68.267c-4.713,0-8.533-3.82-8.533-8.533s3.821-8.533,8.533-8.533h68.267
			c4.713,0,8.533,3.82,8.533,8.533S346.04,467.324,341.327,467.324z"/>
		<path d="M238.927,467.324h-8.533c-4.713,0-8.533-3.82-8.533-8.533s3.82-8.533,8.533-8.533h8.533c4.713,0,8.533,3.82,8.533,8.533
			S243.64,467.324,238.927,467.324z"/>
		<path d="M196.261,467.324h-25.6c-4.713,0-8.533-3.82-8.533-8.533s3.82-8.533,8.533-8.533h25.6c4.713,0,8.533,3.82,8.533,8.533
			S200.974,467.324,196.261,467.324z"/>
		<path d="M119.452,76.787c-4.321-0.004-7.958-3.236-8.468-7.527s2.268-8.286,6.468-9.302L362.627,0.629
			c6.898-1.647,14.17-0.017,19.704,4.417c6.529,5.332,10.28,13.342,10.196,21.77v41.438c0,4.713-3.82,8.533-8.533,8.533
			s-8.533-3.82-8.533-8.533V26.816c0.1-3.2-1.254-6.273-3.683-8.358c-1.42-1.199-3.323-1.658-5.133-1.237L121.469,76.55
			C120.808,76.708,120.131,76.788,119.452,76.787z"/>
	</g>
</g>
<g>
</g>
<g>
</g>
<g>
</g>
<g>
</g>
<g>
</g>
<g>
</g>
<g>
</g>
<g>
</g>
<g>
</g>
<g>
</g>
<g>
</g>
<g>
</g>
<g>
</g>
<g>
</g>
<g>
</g>
</svg>
